# xmcd
#
# Track frame offsets: 
#        150
#        21809
#        40968
#        63023
#        84682
#        105783
#        126328
#        152493
#        175776
#        193691
#        210391
#
# Disc length: 3150 seconds
#
# Revision: 0
# Processed by: cddbd v1.5.2PL0 Copyright (c) Steve Scherf et al.
# Submitted via: ExactAudioCopy v1.0b3
#
DISCID=820c4c0b
DTITLE=The Saint Paul - Consequence
DYEAR=2013
DGENRE=Gothic Rock
TTITLE0=Inside Outside
TTITLE1=Consequence
TTITLE2=Goodbye
TTITLE3=Two Faces
TTITLE4=Cowardice
TTITLE5=Edot
TTITLE6=Rise And Fall
TTITLE7=Last Black Rose
TTITLE8=Came To Loose
TTITLE9=Lonely Despair
TTITLE10=Eternity
EXTD=
EXTT0=
EXTT1=
EXTT2=
EXTT3=
EXTT4=
EXTT5=
EXTT6=
EXTT7=
EXTT8=
EXTT9=
EXTT10=
PLAYORDER=
